<svg width="234" height="37" viewBox="0 0 234 37" fill="none" xmlns="http://www.w3.org/2000/svg">
<path d="M8.36719 1.45312L12.9375 21.2344L13.9219 26.7422L14.9297 21.3516L18.8203 1.45312H26.4375L30.5391 21.2344L31.5938 26.7422L32.6484 21.4453L37.2656 1.45312H44.6016L34.875 36H27.9844L23.8125 15.7969L22.5938 9.11719L21.375 15.7969L17.2031 36H10.5L0.703125 1.45312H8.36719ZM57.6797 15.2812C56.1328 15.2812 54.9297 15.7656 54.0703 16.7344C53.2266 17.7031 52.6953 19.0156 52.4766 20.6719H62.8594C62.75 18.9062 62.2109 17.5703 61.2422 16.6641C60.2891 15.7422 59.1016 15.2812 57.6797 15.2812ZM57.6797 9.77344C59.8047 9.77344 61.7188 10.1719 63.4219 10.9688C65.125 11.7656 66.5312 13.0234 67.6406 14.7422C68.6406 16.2578 69.2891 18.0156 69.5859 20.0156C69.7578 21.1875 69.8281 22.875 69.7969 25.0781H52.3125C52.4062 27.6406 53.2109 29.4375 54.7266 30.4688C55.6484 31.1094 56.7578 31.4297 58.0547 31.4297C59.4297 31.4297 60.5469 31.0391 61.4062 30.2578C61.875 29.8359 62.2891 29.25 62.6484 28.5H69.4688C69.2969 30.0156 68.5078 31.5547 67.1016 33.1172C64.9141 35.6016 61.8516 36.8438 57.9141 36.8438C54.6641 36.8438 51.7969 35.7969 49.3125 33.7031C46.8281 31.6094 45.5859 28.2031 45.5859 23.4844C45.5859 19.0625 46.7031 15.6719 48.9375 13.3125C51.1875 10.9531 54.1016 9.77344 57.6797 9.77344ZM80.0859 25.3359C80.3047 26.9141 80.7344 28.0938 81.375 28.875C82.5469 30.2969 84.5547 31.0078 87.3984 31.0078C89.1016 31.0078 90.4844 30.8203 91.5469 30.4453C93.5625 29.7266 94.5703 28.3906 94.5703 26.4375C94.5703 25.2969 94.0703 24.4141 93.0703 23.7891C92.0703 23.1797 90.5 22.6406 88.3594 22.1719L84.7031 21.3516C81.1094 20.5391 78.625 19.6562 77.25 18.7031C74.9219 17.1094 73.7578 14.6172 73.7578 11.2266C73.7578 8.13281 74.8828 5.5625 77.1328 3.51562C79.3828 1.46875 82.6875 0.445312 87.0469 0.445312C90.6875 0.445312 93.7891 1.41406 96.3516 3.35156C98.9297 5.27344 100.281 8.07031 100.406 11.7422H93.4688C93.3438 9.66406 92.4375 8.1875 90.75 7.3125C89.625 6.73438 88.2266 6.44531 86.5547 6.44531C84.6953 6.44531 83.2109 6.82031 82.1016 7.57031C80.9922 8.32031 80.4375 9.36719 80.4375 10.7109C80.4375 11.9453 80.9844 12.8672 82.0781 13.4766C82.7812 13.8828 84.2812 14.3594 86.5781 14.9062L92.5312 16.3359C95.1406 16.9609 97.1094 17.7969 98.4375 18.8438C100.5 20.4688 101.531 22.8203 101.531 25.8984C101.531 29.0547 100.32 31.6797 97.8984 33.7734C95.4922 35.8516 92.0859 36.8906 87.6797 36.8906C83.1797 36.8906 79.6406 35.8672 77.0625 33.8203C74.4844 31.7578 73.1953 28.9297 73.1953 25.3359H80.0859ZM120.422 9.79688C122 9.79688 123.43 10.0703 124.711 10.6172C126.008 11.1641 127.07 12 127.898 13.125C128.602 14.0781 129.031 15.0625 129.188 16.0781C129.344 17.0781 129.422 18.7188 129.422 21V36H122.602V20.4609C122.602 19.0859 122.367 17.9766 121.898 17.1328C121.289 15.9453 120.133 15.3516 118.43 15.3516C116.664 15.3516 115.32 15.9453 114.398 17.1328C113.492 18.3047 113.039 19.9844 113.039 22.1719V36H106.383V1.57031H113.039V13.7812C114.008 12.2969 115.125 11.2656 116.391 10.6875C117.672 10.0938 119.016 9.79688 120.422 9.79688ZM145.758 15.2812C144.211 15.2812 143.008 15.7656 142.148 16.7344C141.305 17.7031 140.773 19.0156 140.555 20.6719H150.938C150.828 18.9062 150.289 17.5703 149.32 16.6641C148.367 15.7422 147.18 15.2812 145.758 15.2812ZM145.758 9.77344C147.883 9.77344 149.797 10.1719 151.5 10.9688C153.203 11.7656 154.609 13.0234 155.719 14.7422C156.719 16.2578 157.367 18.0156 157.664 20.0156C157.836 21.1875 157.906 22.875 157.875 25.0781H140.391C140.484 27.6406 141.289 29.4375 142.805 30.4688C143.727 31.1094 144.836 31.4297 146.133 31.4297C147.508 31.4297 148.625 31.0391 149.484 30.2578C149.953 29.8359 150.367 29.25 150.727 28.5H157.547C157.375 30.0156 156.586 31.5547 155.18 33.1172C152.992 35.6016 149.93 36.8438 145.992 36.8438C142.742 36.8438 139.875 35.7969 137.391 33.7031C134.906 31.6094 133.664 28.2031 133.664 23.4844C133.664 19.0625 134.781 15.6719 137.016 13.3125C139.266 10.9531 142.18 9.77344 145.758 9.77344ZM169.219 36H162.539V1.45312H169.219V36ZM173.133 15.4453V10.6875H176.695V3.5625H183.305V10.6875H187.453V15.4453H183.305V28.9453C183.305 29.9922 183.438 30.6484 183.703 30.9141C183.969 31.1641 184.781 31.2891 186.141 31.2891C186.344 31.2891 186.555 31.2891 186.773 31.2891C187.008 31.2734 187.234 31.2578 187.453 31.2422V36.2344L184.289 36.3516C181.133 36.4609 178.977 35.9141 177.82 34.7109C177.07 33.9453 176.695 32.7656 176.695 31.1719V15.4453H173.133ZM201.82 15.2812C200.273 15.2812 199.07 15.7656 198.211 16.7344C197.367 17.7031 196.836 19.0156 196.617 20.6719H207C206.891 18.9062 206.352 17.5703 205.383 16.6641C204.43 15.7422 203.242 15.2812 201.82 15.2812ZM201.82 9.77344C203.945 9.77344 205.859 10.1719 207.562 10.9688C209.266 11.7656 210.672 13.0234 211.781 14.7422C212.781 16.2578 213.43 18.0156 213.727 20.0156C213.898 21.1875 213.969 22.875 213.938 25.0781H196.453C196.547 27.6406 197.352 29.4375 198.867 30.4688C199.789 31.1094 200.898 31.4297 202.195 31.4297C203.57 31.4297 204.688 31.0391 205.547 30.2578C206.016 29.8359 206.43 29.25 206.789 28.5H213.609C213.438 30.0156 212.648 31.5547 211.242 33.1172C209.055 35.6016 205.992 36.8438 202.055 36.8438C198.805 36.8438 195.938 35.7969 193.453 33.7031C190.969 31.6094 189.727 28.2031 189.727 23.4844C189.727 19.0625 190.844 15.6719 193.078 13.3125C195.328 10.9531 198.242 9.77344 201.82 9.77344ZM232.336 9.84375C232.461 9.84375 232.562 9.85156 232.641 9.86719C232.734 9.86719 232.93 9.875 233.227 9.89062V16.7344C232.805 16.6875 232.43 16.6562 232.102 16.6406C231.773 16.625 231.508 16.6172 231.305 16.6172C228.617 16.6172 226.812 17.4922 225.891 19.2422C225.375 20.2266 225.117 21.7422 225.117 23.7891V36H218.391V10.4531H224.766V14.9062C225.797 13.2031 226.695 12.0391 227.461 11.4141C228.711 10.3672 230.336 9.84375 232.336 9.84375Z" fill="white"/>
</svg>
